<svg width="20" height="20" viewBox="0 0 20 20" fill="none" xmlns="http://www.w3.org/2000/svg">
    <path
        d="M9.20908 12.459L7.66708 14C7.51141 14.1552 7.30101 14.2429 7.08122 14.2444C6.86143 14.2459 6.64985 14.161 6.49208 14.008C6.40008 13.916 6.30908 13.833 6.21708 13.741C5.37443 12.893 4.5972 11.9824 3.89208 11.017C3.24459 10.1328 2.69693 9.17967 2.25908 8.175C1.88494 7.31429 1.68379 6.38837 1.66708 5.45C1.66354 4.89977 1.76538 4.35395 1.96708 3.842C2.17898 3.31256 2.50625 2.83703 2.92508 2.45C3.14701 2.2101 3.41484 2.01719 3.71269 1.88269C4.01054 1.74819 4.33236 1.67485 4.65908 1.667C4.89245 1.66608 5.12307 1.71733 5.33408 1.817C5.5591 1.91901 5.75202 2.08048 5.89208 2.284L7.82508 5.009C7.95865 5.18955 8.07042 5.38524 8.15808 5.592C8.23054 5.75185 8.27032 5.92457 8.27508 6.1C8.27277 6.30975 8.21218 6.51472 8.10008 6.692C7.97148 6.90926 7.81442 7.10835 7.63308 7.284L7.00008 7.942C6.95608 7.98529 6.92154 8.03723 6.89864 8.09455C6.87575 8.15187 6.865 8.21332 6.86708 8.275C6.86716 8.33981 6.87556 8.40434 6.89208 8.467C6.91708 8.534 6.94208 8.584 6.95908 8.634C7.18283 9.01355 7.44235 9.37084 7.73408 9.701C8.10908 10.134 8.50908 10.576 8.94208 11.018C9.02508 11.101 9.11708 11.185 9.20008 11.268C9.27974 11.3451 9.34324 11.4373 9.38688 11.5392C9.43052 11.6412 9.45343 11.7508 9.45427 11.8616C9.4551 11.9725 9.43386 12.0824 9.39176 12.185C9.34966 12.2875 9.28756 12.3807 9.20908 12.459Z"
        fill="white" />
    <path
        d="M18.308 15.275C18.307 15.5164 18.2647 15.7558 18.183 15.983C18.1589 16.051 18.1312 16.1178 18.1 16.183C17.9544 16.4929 17.7633 16.7794 17.533 17.033C17.1576 17.4598 16.6902 17.7959 16.166 18.016C16.158 18.016 16.149 18.024 16.141 18.024C15.6328 18.2298 15.0893 18.3345 14.541 18.332C13.6036 18.3148 12.6793 18.1079 11.824 17.724C10.8094 17.2843 9.84798 16.7311 8.958 16.075C8.633 15.833 8.308 15.592 8 15.333L10.725 12.608C10.9199 12.7573 11.1262 12.891 11.342 13.008C11.384 13.025 11.434 13.05 11.492 13.075C11.5587 13.0987 11.6292 13.1099 11.7 13.108C11.7638 13.1094 11.8271 13.0975 11.886 13.0731C11.9449 13.0486 11.998 13.0121 12.042 12.966L12.675 12.342C12.8506 12.1573 13.0528 11.9998 13.275 11.875C13.4518 11.7618 13.6571 11.7011 13.867 11.7C14.0418 11.7022 14.2144 11.7389 14.375 11.808C14.5801 11.8958 14.7754 12.0047 14.958 12.133L17.717 14.092C17.917 14.2228 18.0758 14.4076 18.175 14.625C18.2613 14.8309 18.3065 15.0517 18.308 15.275Z"
        fill="white" />
</svg>