<svg width="18" height="20" viewBox="0 0 18 20" fill="none" xmlns="http://www.w3.org/2000/svg">
<path d="M0.26294 17.58C0.262808 17.819 0.309761 18.0556 0.401116 18.2764C0.49247 18.4972 0.626436 18.6979 0.795359 18.8669C0.964282 19.0359 1.16485 19.17 1.38561 19.2614C1.60636 19.3529 1.84298 19.4 2.08194 19.4H15.4189C15.9014 19.4 16.364 19.2084 16.7052 18.8672C17.0463 18.5261 17.2379 18.0634 17.2379 17.581V7.275H0.26294V17.58ZM12.3869 10.154C12.3872 10.0334 12.4352 9.91783 12.5205 9.83256C12.6058 9.74729 12.7213 9.69926 12.8419 9.699H14.3579C14.4785 9.69926 14.5941 9.74729 14.6794 9.83256C14.7647 9.91783 14.8127 10.0334 14.8129 10.154V11.67C14.8127 11.7906 14.7647 11.9062 14.6794 11.9914C14.5941 12.0767 14.4785 12.1247 14.3579 12.125H12.8419C12.7213 12.1247 12.6058 12.0767 12.5205 11.9914C12.4352 11.9062 12.3872 11.7906 12.3869 11.67V10.154ZM12.3869 15.004C12.3872 14.8834 12.4352 14.7678 12.5205 14.6826C12.6058 14.5973 12.7213 14.5493 12.8419 14.549H14.3579C14.4785 14.5493 14.5941 14.5973 14.6794 14.6826C14.7647 14.7678 14.8127 14.8834 14.8129 15.004V16.52C14.8127 16.6406 14.7647 16.7562 14.6794 16.8414C14.5941 16.9267 14.4785 16.9747 14.3579 16.975H12.8419C12.7213 16.9747 12.6058 16.9267 12.5205 16.8414C12.4352 16.7562 12.3872 16.6406 12.3869 16.52V15.004ZM7.53694 10.154C7.53747 10.0336 7.58561 9.91826 7.67085 9.8332C7.75609 9.74815 7.87152 9.70026 7.99194 9.7H9.50794C9.62853 9.70026 9.74411 9.74829 9.82938 9.83356C9.91465 9.91883 9.96268 10.0344 9.96294 10.155V11.67C9.96268 11.7906 9.91465 11.9062 9.82938 11.9914C9.74411 12.0767 9.62853 12.1247 9.50794 12.125H7.99194C7.87135 12.1247 7.75577 12.0767 7.6705 11.9914C7.58523 11.9062 7.5372 11.7906 7.53694 11.67V10.154ZM7.53694 15.004C7.5372 14.8834 7.58523 14.7678 7.6705 14.6826C7.75577 14.5973 7.87135 14.5493 7.99194 14.549H9.50794C9.62784 14.5493 9.74282 14.5967 9.82798 14.6811C9.91314 14.7655 9.96163 14.8801 9.96294 15V16.52C9.96268 16.6406 9.91465 16.7562 9.82938 16.8414C9.74411 16.9267 9.62853 16.9747 9.50794 16.975H7.99194C7.87135 16.9747 7.75577 16.9267 7.6705 16.8414C7.58523 16.7562 7.5372 16.6406 7.53694 16.52V15.004ZM2.68694 10.154C2.68747 10.0334 2.73574 9.91794 2.8212 9.83285C2.90666 9.74777 3.02235 9.7 3.14294 9.7H4.66294C4.78353 9.70026 4.89911 9.74829 4.98438 9.83356C5.06965 9.91883 5.11768 10.0344 5.11794 10.155V11.67C5.11768 11.7906 5.06965 11.9062 4.98438 11.9914C4.89911 12.0767 4.78353 12.1247 4.66294 12.125H3.14294C3.02235 12.1247 2.90677 12.0767 2.8215 11.9914C2.73623 11.9062 2.6882 11.7906 2.68794 11.67L2.68694 10.154ZM2.68694 15.004C2.6872 14.8834 2.73523 14.7678 2.8205 14.6826C2.90577 14.5973 3.02135 14.5493 3.14194 14.549H4.66294C4.78198 14.5506 4.89568 14.5986 4.97977 14.6829C5.06385 14.7671 5.11164 14.881 5.11294 15V16.52C5.11268 16.6406 5.06465 16.7562 4.97938 16.8414C4.89411 16.9267 4.77853 16.9747 4.65794 16.975H3.14294C3.02235 16.9747 2.90677 16.9267 2.8215 16.8414C2.73623 16.7562 2.6882 16.6406 2.68794 16.52L2.68694 15.004ZM15.4189 2.425H13.5999V0.606C13.5994 0.445441 13.5354 0.291609 13.4219 0.178076C13.3083 0.0645429 13.1545 0.000527292 12.9939 0L11.7809 0C11.6204 0.000527292 11.4665 0.0645429 11.353 0.178076C11.2395 0.291609 11.1755 0.445441 11.1749 0.606V2.425H6.32494V0.606C6.32441 0.445441 6.2604 0.291609 6.14686 0.178076C6.03333 0.0645429 5.8795 0.000527292 5.71894 0H4.50694C4.34638 0.000527292 4.19255 0.0645429 4.07902 0.178076C3.96548 0.291609 3.90147 0.445441 3.90094 0.606V2.425H2.08194C1.59951 2.425 1.13684 2.61664 0.795713 2.95777C0.454584 3.2989 0.26294 3.76157 0.26294 4.244V6.062H17.2369V4.244C17.2369 3.76174 17.0454 3.29923 16.7045 2.95813C16.3636 2.61703 15.9012 2.42527 15.4189 2.425Z" fill="#9C9EB9"/>
</svg>
