<svg width="27" height="28" viewBox="0 0 27 28" fill="none" xmlns="http://www.w3.org/2000/svg">
<path d="M26.843 14.081C26.8426 11.5163 26.1074 9.00542 24.7243 6.84559C23.3413 4.68576 21.3684 2.96743 19.0391 1.89402C16.7098 0.820611 14.1218 0.437074 11.5813 0.788814C9.04087 1.14055 6.65439 2.21284 4.70439 3.87873C2.7544 5.54462 1.32257 7.73436 0.578386 10.1887C-0.165794 12.6431 -0.191153 15.2593 0.505311 17.7276C1.20178 20.1959 2.5909 22.413 4.50823 24.1164C6.42556 25.8197 8.79081 26.9381 11.324 27.339V17.961H7.91598V14.08H11.324V11.125C11.324 7.762 13.324 5.903 16.394 5.903C17.3991 5.91736 18.4017 6.00526 19.394 6.166V9.466H17.705C17.4162 9.42754 17.1224 9.45462 16.8456 9.54523C16.5687 9.63583 16.3157 9.78764 16.1055 9.98938C15.8953 10.1911 15.7333 10.4376 15.6314 10.7105C15.5295 10.9835 15.4904 11.2759 15.517 11.566V14.083H19.24L18.64 17.964H15.517V27.34C18.6742 26.84 21.5494 25.23 23.6255 22.7995C25.7017 20.369 26.8426 17.2775 26.843 14.081Z" fill="#1877F2"/>
</svg>
