<svg width="24" height="26" viewBox="0 0 24 26" fill="none" xmlns="http://www.w3.org/2000/svg">
<path d="M23.7009 13.273C23.6996 12.5057 23.6354 11.7398 23.5089 10.983H12.1089V15.534H18.6369C18.4933 16.2668 18.2052 16.9636 17.7894 17.5838C17.3735 18.2039 16.8383 18.735 16.2149 19.146V22.173H20.1099C21.2966 21.0225 22.2293 19.6361 22.8477 18.1033C23.4662 16.5704 23.7569 14.925 23.7009 13.273Z" fill="#4285F4"/>
<path d="M12.1079 25.1079C15.0516 25.1865 17.9139 24.1361 20.1079 22.1719L16.2129 19.1449C14.9911 19.9356 13.5609 20.343 12.1059 20.3149C10.5934 20.2964 9.12471 19.8041 7.90666 18.9071C6.68861 18.0102 5.78252 16.7538 5.31593 15.3149H1.29993V18.4329C2.30474 20.4388 3.84785 22.1255 5.75661 23.3043C7.66537 24.4832 9.86448 25.1077 12.1079 25.1079Z" fill="#34A853"/>
<path d="M5.31796 15.312C5.06187 14.5685 4.9324 13.7873 4.93496 13.001C4.93739 12.2151 5.06672 11.4347 5.31796 10.69V7.573H1.30196C0.446274 9.25461 0.000244141 11.1147 0.000244141 13.0015C0.000244141 14.8883 0.446274 16.7484 1.30196 18.43L5.31796 15.312Z" fill="#FBBC05"/>
<path d="M12.108 5.686C13.8335 5.65823 15.5006 6.31056 16.749 7.502L20.2 4.051C18.0148 1.98786 15.113 0.855379 12.108 0.892998C9.86437 0.894117 7.66531 1.51954 5.75689 2.69928C3.84847 3.87902 2.30597 5.56653 1.302 7.573L5.318 10.691C5.78374 9.25116 6.68946 7.99373 7.90759 7.09583C9.12571 6.19794 10.5948 5.70484 12.108 5.686Z" fill="#EA4335"/>
</svg>
