<svg width="80" height="45" viewBox="0 0 80 45" fill="none" xmlns="http://www.w3.org/2000/svg">
    <mask id="mask0_3202_751" style="mask-type:luminance" maskUnits="userSpaceOnUse" x="0" y="0" width="80" height="45">
        <path d="M0 0.190918H79.118V44.1459H0V0.190918Z" fill="white" />
    </mask>
    <g mask="url(#mask0_3202_751)">
        <path
            d="M14.3589 24.8919C14.3816 24.8678 14.3989 24.8392 14.4099 24.8079C14.5099 24.5999 14.6009 24.3839 14.6949 24.1719C15.1447 23.1699 15.5201 22.1361 15.8179 21.0789C16.0896 20.1624 16.2902 19.2263 16.4179 18.2789C16.4916 17.7601 16.5147 17.2352 16.4869 16.7119C16.4711 16.4892 16.443 16.2675 16.4029 16.0479C16.3475 15.753 16.2565 15.4659 16.1319 15.1929C16.0539 15.0219 16.1319 15.1929 16.0539 15.0219C15.9619 14.7449 15.8249 14.7109 15.7809 14.8439C15.7029 15.0439 15.6179 15.2059 15.5379 15.4009C15.3594 15.8486 15.2192 16.3106 15.1189 16.7819C14.9227 17.74 14.7792 18.7081 14.6889 19.6819C14.6439 20.0589 14.6099 20.4369 14.5709 20.8139C14.5219 21.2859 14.4819 21.7589 14.4459 22.2319C14.4189 22.5889 14.3949 22.9469 14.3729 23.3039C14.3619 23.4749 14.3579 23.6469 14.3479 23.8179C14.3292 24.1513 14.3265 24.4846 14.3399 24.8179C14.337 24.8432 14.3437 24.8685 14.3589 24.8889M11.9019 32.7709L11.5529 33.0029C10.6579 33.6029 9.77486 34.2219 8.87886 34.8199C7.90686 35.4689 6.92087 36.0979 5.90587 36.6799C5.77087 36.7579 5.63187 36.8289 5.49187 36.8969C5.27907 37.0002 5.0454 37.0532 4.80887 37.0519C4.6651 37.058 4.52106 37.054 4.37785 37.0399C4.15952 37.0187 3.95561 36.9214 3.80186 36.7649C3.77486 36.7359 3.74586 36.7079 3.71786 36.6799C3.67723 36.6402 3.64489 36.5927 3.62274 36.5404C3.6006 36.488 3.58909 36.4318 3.58887 36.3749C3.58887 36.2749 3.58887 36.1659 3.58887 36.0619C3.5974 35.9418 3.63149 35.8248 3.68886 35.7189C3.77263 35.5517 3.87675 35.3956 3.99886 35.2539C4.32436 34.8746 4.68021 34.5225 5.06287 34.2009C5.77758 33.5991 6.52397 33.036 7.29886 32.5139C7.95986 32.0589 8.61786 31.5999 9.24686 31.1009C9.53286 30.8739 9.81186 30.6399 10.0799 30.3919C10.3609 30.1359 10.6104 29.8472 10.8229 29.5319C10.9716 29.3139 11.0775 29.0695 11.1349 28.8119C11.1598 28.6546 11.1541 28.494 11.1179 28.3389C11.0629 28.0159 11.0179 27.6919 10.9929 27.3649C10.9157 26.3195 10.8934 25.2707 10.9259 24.2229C10.9319 23.8739 10.9459 23.5229 10.9659 23.1759C10.9945 22.6779 11.0339 22.1806 11.0839 21.6839C11.1289 21.2359 11.1839 20.7889 11.2399 20.3439C11.3219 19.7379 11.4169 19.1336 11.5249 18.5309C11.6419 17.8779 11.7669 17.2259 11.9149 16.5779C12.1025 15.7138 12.36 14.8664 12.6849 14.0439C12.8943 13.4972 13.1736 12.9799 13.5159 12.5049C13.907 11.9881 14.3872 11.5451 14.9339 11.1969C15.1472 11.0556 15.3844 10.954 15.6339 10.8969C15.7053 10.8797 15.7784 10.87 15.8519 10.8679C16.0519 10.859 16.2523 10.8623 16.4519 10.8779C16.7194 10.9138 16.979 10.9942 17.2199 11.1159C18.1579 11.5616 18.8904 12.3485 19.2679 13.3159C19.4494 13.7743 19.5788 14.2516 19.6539 14.7389C19.7652 15.5002 19.8077 16.27 19.7809 17.0389C19.7759 17.4189 19.7549 17.7979 19.7229 18.1769C19.5042 20.7089 18.744 23.1643 17.4939 25.3769C17.2119 25.8829 16.8939 26.3679 16.5939 26.8619C16.2395 27.4277 15.9199 28.0144 15.6369 28.6189C15.5132 28.8788 15.416 29.1505 15.3469 29.4299C15.277 29.7379 15.2631 30.056 15.3059 30.3689C15.4017 31.1011 15.6226 31.8115 15.9589 32.4689C16.0622 32.6673 16.1777 32.859 16.3049 33.0429C16.644 33.5386 17.1042 33.9393 17.6419 34.2069C18.0812 34.4296 18.5542 34.5785 19.0419 34.6479C19.3472 34.6978 19.6565 34.7199 19.9659 34.7139C20.2229 34.7059 20.4789 34.6769 20.7359 34.6559C21.2486 34.6073 21.7646 34.6043 22.2779 34.6469C22.3751 34.6582 22.4712 34.6783 22.5649 34.7069C22.727 34.7654 22.8669 34.8731 22.9649 35.0149C22.9976 35.0601 23.0132 35.1154 23.0089 35.1709C23.0089 35.2409 23.0089 35.3119 23.0089 35.3819C23.0124 35.4402 23.0035 35.4986 22.9828 35.5533C22.9621 35.6079 22.9301 35.6575 22.8889 35.6989C22.7437 35.8638 22.5752 36.0066 22.3889 36.1229C22.0635 36.3122 21.7226 36.4734 21.3699 36.6049C20.7358 36.8486 20.0778 37.0249 19.4069 37.1309C18.8671 37.211 18.321 37.2395 17.7759 37.2159C17.2669 37.2027 16.7641 37.1011 16.2899 36.9159C15.8769 36.7543 15.4738 36.5683 15.0829 36.3589C14.5198 36.0571 14.0144 35.6583 13.5899 35.1809C13.1124 34.6527 12.6817 34.0839 12.3029 33.4809C12.1819 33.2809 12.0719 33.0809 11.9649 32.8809C11.9469 32.8459 11.9269 32.8109 11.9029 32.7659"
            fill="#FC466B" />
        <path
            d="M40.16 15.7479C40.619 15.3809 41.767 16.2299 41.584 17.2409C41.331 18.4809 38.897 23.1649 34.971 28.8599C34.718 29.4599 33.593 33.0389 34.305 33.4979C35.04 33.9109 38.966 29.4569 39.954 28.2859C40.941 27.0919 40.689 27.7119 39.564 29.6859C38.439 31.7069 36.12 34.8759 34.972 34.7859C34.4553 34.7106 33.9673 34.5014 33.5564 34.1791C33.1456 33.8569 32.8262 33.4328 32.63 32.9489C31.849 30.6989 37.177 18.2299 40.162 15.7489"
            fill="#FC466B" />
        <path
            d="M43.42 21.168C44.178 20.433 45.487 20.548 45.62 21.673C45.735 22.798 43.783 24.337 43.163 24.015C42.543 23.671 42.887 21.696 43.416 21.168M42.658 26.495C42.658 27.207 39.627 31.753 40.201 32.213C40.959 32.856 44.242 29.595 45.459 27.942C46.469 26.564 45.78 28.585 43.783 31.18C43.094 32.08 41.583 33.545 41.142 33.568C40.5742 33.545 40.0327 33.3231 39.6122 32.9409C39.1916 32.5588 38.919 32.0409 38.842 31.478C38.612 30.399 40.679 26.817 41.46 25.508C41.644 25.141 42.654 25.829 42.654 26.495"
            fill="#FC466B" />
        <path
            d="M47.531 25.3919C47.646 25.9199 46.314 29.2499 45.878 30.6269C46.6993 29.2108 47.7826 27.964 49.07 26.9529C49.644 26.6319 51.091 27.2289 50.838 28.2159C50.585 29.1799 49.575 31.7059 50.149 32.1649C50.723 32.6239 53.892 29.5239 54.902 28.1469C55.935 26.7689 55.912 27.6189 52.927 31.9129C52.4548 32.6991 51.748 33.3174 50.906 33.6809C50.3816 33.5526 49.8982 33.2937 49.5008 32.9282C49.1034 32.5628 48.8048 32.1028 48.633 31.5909C48.6044 30.5735 48.8251 29.5645 49.276 28.6519C47.5733 30.1615 46.1913 31.9979 45.212 34.0519C44.959 34.5569 43.559 33.9369 43.697 32.3519C43.835 30.8129 45.809 28.2649 45.809 24.9119C45.809 24.0849 47.416 24.8889 47.531 25.3939"
            fill="#FC466B" />
        <path
            d="M59.3099 28.6299C59.4939 28.0789 59.7459 27.4359 60.0219 26.7699L59.8839 26.4939C57.0599 25.8739 55.1769 30.2369 54.6719 32.6709C55.6359 32.3499 57.8179 30.2139 59.3099 28.6299ZM60.4579 25.7829C61.9969 22.2699 64.2469 18.16 65.2579 17.31C65.6939 16.966 66.8419 17.815 66.6579 18.803C66.4049 20.043 64.6369 22.569 60.7109 28.286C60.4579 28.886 59.3329 32.4649 60.0449 32.9009C60.7569 33.3139 64.3619 29.457 65.3719 28.286C66.3589 27.092 66.6119 26.954 65.4639 28.952C64.3389 30.952 61.8589 34.2789 60.7109 34.2099C60.1913 34.1338 59.701 33.9217 59.2897 33.595C58.8784 33.2684 58.5608 32.8389 58.3689 32.3499C58.2426 31.8918 58.2426 31.4081 58.3689 30.95C57.3129 32.58 55.9119 34.0499 55.1079 34.2569C54.3729 34.4639 53.0639 33.1569 53.2709 31.7309C53.5709 29.6869 56.4399 24.98 58.5289 24.842C59.2709 24.8889 59.9642 25.2271 60.4579 25.7829Z"
            fill="#FC466B" />
        <path
            d="M68.219 26.678C69.046 26.196 70.219 27.367 69.551 27.528C68.7533 27.8022 68.0302 28.2582 67.439 28.86C68.5173 28.9338 69.6005 28.8489 70.654 28.608C70.8289 28.2052 70.9172 27.7701 70.9132 27.331C70.9092 26.8919 70.8131 26.4585 70.631 26.059C69.942 24.934 66.062 26.659 66.291 28.103C66.879 27.558 67.526 27.0803 68.22 26.679M70.264 29.572C69.4987 29.7122 68.723 29.7891 67.945 29.802C67.5557 29.8038 67.1711 29.7173 66.82 29.549C65.764 30.812 65.144 32.282 65.695 32.97C66.682 34.233 69.095 31.983 70.265 29.57M65.672 28.743C65.4774 28.5712 65.3307 28.352 65.2462 28.1066C65.1618 27.8612 65.1424 27.5981 65.19 27.343C65.649 25.965 67.716 24.863 69.002 24.702C70.517 24.541 72.354 26.47 72.286 27.871C72.286 28.009 72.263 28.124 72.263 28.238C73.71 27.871 74.996 27.48 75.455 27.297C76.695 26.815 76.006 27.756 73.365 28.744C72.9474 28.9201 72.5176 29.0658 72.079 29.18C71.39 31.798 69.14 34.163 67.464 34.599C66.6659 34.6397 65.8833 34.3674 65.2829 33.84C64.6825 33.3126 64.3115 32.5717 64.249 31.775C64.3874 30.6384 64.8865 29.576 65.673 28.744"
            fill="#FC466B" />
    </g>
</svg>