<svg width="277" height="101" viewBox="0 0 277 101" fill="none" xmlns="http://www.w3.org/2000/svg">
    <path
        d="M41.722 53.874C41.8079 53.7823 41.8736 53.6736 41.915 53.555C42.315 52.766 42.639 51.944 42.999 51.136C44.7091 47.3273 46.136 43.3976 47.268 39.379C48.3025 35.9014 49.0674 32.3492 49.556 28.754C49.836 26.7818 49.9234 24.7871 49.817 22.798C49.7571 21.9511 49.6506 21.1082 49.498 20.273C49.2881 19.1523 48.9425 18.0613 48.469 17.024C48.169 16.373 48.458 17.04 48.169 16.373C47.82 15.32 47.298 15.192 47.13 15.698C46.83 16.443 46.51 17.072 46.206 17.814C45.5272 19.5158 44.9939 21.2721 44.612 23.064C43.8664 26.7014 43.3202 30.3769 42.976 34.074C42.805 35.506 42.676 36.943 42.526 38.374C42.34 40.168 42.188 41.965 42.052 43.763C41.952 45.121 41.86 46.48 41.773 47.839C41.731 48.49 41.714 49.139 41.673 49.793C41.6017 51.0597 41.5917 52.3287 41.643 53.6C41.6316 53.6958 41.6569 53.7923 41.714 53.87M32.376 83.828C31.919 84.128 31.482 84.419 31.048 84.711C27.648 86.994 24.291 89.345 20.885 91.619C17.185 94.086 13.443 96.477 9.585 98.689C9.071 98.984 8.545 99.257 8.01 99.514C7.19998 99.9072 6.31037 100.109 5.41 100.103C4.86324 100.126 4.31557 100.11 3.77101 100.056C2.94112 99.9753 2.16615 99.605 1.58201 99.01C1.48201 98.899 1.369 98.795 1.261 98.688C1.10639 98.5368 0.983364 98.3564 0.899074 98.1573C0.814784 97.9582 0.770909 97.7442 0.77 97.528C0.761 97.128 0.758 96.735 0.77 96.34C0.797 95.886 0.920051 95.4429 1.13101 95.04C1.44988 94.4042 1.84622 93.8104 2.311 93.272C3.54768 91.8313 4.89947 90.4936 6.35301 89.272C9.06988 86.9839 11.9073 84.8428 14.853 82.858C17.366 81.129 19.867 79.385 22.253 77.487C23.339 76.625 24.4 75.734 25.417 74.787C26.4861 73.8136 27.4348 72.7158 28.243 71.517C28.8083 70.6885 29.2108 69.76 29.429 68.781C29.5245 68.1825 29.5027 67.5712 29.365 66.981C29.155 65.753 29 64.52 28.891 63.281C28.5975 59.3079 28.5121 55.3221 28.635 51.34C28.657 50.013 28.71 48.685 28.786 47.36C28.8953 45.4667 29.045 43.576 29.235 41.688C29.406 39.988 29.6 38.288 29.83 36.593C30.142 34.289 30.5037 31.9923 30.915 29.703C31.36 27.219 31.836 24.742 32.398 22.282C33.111 18.9971 34.0896 15.7755 35.324 12.649C36.1201 10.5712 37.1819 8.60515 38.483 6.80002C39.9694 4.83543 41.7943 3.15171 43.872 1.828C44.6871 1.28486 45.5942 0.8945 46.549 0.675995C46.8207 0.610068 47.0985 0.572872 47.378 0.565002C48.1344 0.531808 48.8922 0.544834 49.647 0.604004C50.663 0.740654 51.649 1.04655 52.564 1.509C56.1291 3.20233 58.9136 6.19247 60.349 9.86902C61.0393 11.6114 61.5317 13.4258 61.817 15.278C62.2404 18.1709 62.4024 21.0961 62.301 24.018C62.281 25.462 62.201 26.904 62.079 28.343C61.2505 37.9717 58.3615 47.3096 53.608 55.724C52.536 57.646 51.336 59.49 50.194 61.368C48.8475 63.5179 47.6329 65.7477 46.557 68.045C46.0877 69.0328 45.7192 70.0653 45.457 71.127C45.1917 72.2977 45.1392 73.5067 45.302 74.696C45.6661 77.4812 46.506 80.1832 47.785 82.684C48.1773 83.4379 48.6161 84.1667 49.099 84.866C50.3883 86.7494 52.1377 88.272 54.181 89.289C55.8538 90.1362 57.6545 90.7027 59.511 90.966C60.672 91.1555 61.8478 91.2395 63.024 91.217C64.002 91.186 64.974 91.077 65.949 90.995C67.8974 90.8097 69.8584 90.7976 71.809 90.959C72.1788 91.0016 72.5439 91.0775 72.9 91.186C73.5181 91.4071 74.0514 91.8162 74.425 92.356C74.5497 92.5278 74.6093 92.7383 74.593 92.95C74.593 93.218 74.579 93.487 74.593 93.75C74.6058 93.9708 74.5719 94.1918 74.4935 94.3985C74.4151 94.6053 74.294 94.7933 74.138 94.95C73.5812 95.5784 72.9353 96.1218 72.221 96.563C70.985 97.2827 69.69 97.8959 68.35 98.396C65.9397 99.3226 63.4386 99.993 60.888 100.396C58.8363 100.7 56.7602 100.808 54.688 100.718C52.7537 100.666 50.8431 100.279 49.041 99.574C47.4719 98.9596 45.9405 98.2527 44.455 97.457C42.3149 96.3103 40.3938 94.7951 38.78 92.981C36.9657 90.9774 35.3288 88.82 33.888 86.533C33.429 85.791 33.009 85.026 32.603 84.253C32.533 84.119 32.46 83.988 32.367 83.816"
        fill="#FC466B" />
    <path
        d="M139.784 19.12C141.53 17.72 145.893 20.953 145.195 24.793C144.235 29.505 134.984 47.309 120.061 68.952C119.101 71.221 114.825 84.836 117.53 86.581C120.323 88.152 135.246 71.221 138.999 66.77C142.752 62.232 141.792 64.588 137.515 72.094C133.239 79.774 124.424 91.818 120.061 91.468C117.53 91.381 112.73 88.85 111.161 84.487C108.194 75.934 128.441 28.545 139.786 19.12"
        fill="#FC466B" />
    <path
        d="M152.175 39.7171C155.055 36.9241 160.03 37.3611 160.553 41.6371C160.989 45.9131 153.571 51.7601 151.215 50.5371C148.859 49.2281 150.168 41.7221 152.175 39.7151M149.295 59.9621C149.295 62.6681 137.775 79.9471 139.957 81.6931C142.837 84.1361 155.317 71.7441 159.943 65.4601C163.783 60.2241 161.165 67.9041 153.572 77.7651C150.954 81.1651 145.194 86.7541 143.536 86.8421C139.172 87.1911 135.682 83.0891 134.809 78.9001C133.937 74.8001 141.791 61.1841 144.758 56.2091C145.458 54.8091 149.295 57.4311 149.295 59.9621Z"
        fill="#FC466B" />
    <path
        d="M167.797 55.7741C168.233 57.7811 163.171 70.4361 161.513 75.6741C167.012 67.3811 171.546 62.8431 173.646 61.7081C175.828 60.4871 181.326 62.7561 180.366 66.5081C179.406 70.1741 175.566 79.7741 177.748 81.5191C179.93 83.2641 191.971 71.4831 195.811 66.2471C199.739 61.0101 199.651 64.2401 188.306 80.5591C185.775 84.1371 182.372 87.1041 180.626 87.2791C178.968 87.6281 172.772 83.5261 171.986 79.3371C171.113 75.4971 174.167 68.7771 174.429 68.1661C167.959 73.8991 162.706 80.8734 158.982 88.6751C158.022 90.5951 152.699 88.2391 153.222 82.2171C153.745 76.3701 161.251 66.6831 161.251 53.9411C161.251 50.7991 167.36 53.8541 167.797 55.7741Z"
        fill="#FC466B" />
    <path
        d="M212.566 68.08C213.266 65.985 214.224 63.542 215.272 61.011L214.748 59.964C204.014 57.607 196.858 74.189 194.938 83.44C198.603 82.218 206.893 74.102 212.566 68.08ZM216.931 57.258C222.778 43.906 231.331 28.284 235.171 25.058C236.829 23.749 241.193 26.978 240.494 30.731C239.534 35.444 232.814 45.043 217.894 66.774C216.934 69.043 212.658 82.658 215.363 84.316C218.069 85.887 231.77 71.225 235.611 66.774C239.364 62.236 240.323 61.712 235.96 69.305C231.683 76.898 222.26 89.552 217.895 89.29C215.364 89.203 210.564 86.672 208.995 82.221C208.514 80.4789 208.514 78.6392 208.995 76.897C204.98 83.097 199.657 88.678 196.602 89.464C193.809 90.249 188.835 85.275 189.62 79.864C190.754 72.097 201.663 54.206 209.605 53.682C212.049 53.508 215.105 55.34 216.936 57.26"
        fill="#FC466B" />
    <path
        d="M246.427 60.656C249.569 58.823 254.02 63.274 251.488 63.885C248.455 64.9295 245.706 66.6657 243.46 68.956C246.602 69.392 251.053 68.869 255.678 67.996C256.9 64.243 257.078 60.752 255.591 58.309C252.973 54.028 238.224 60.574 239.095 66.072C241.33 63.9992 243.789 62.1826 246.427 60.656ZM254.194 71.656C251.285 72.1884 248.336 72.48 245.379 72.528C243.899 72.5355 242.437 72.2073 241.103 71.568C237.089 76.368 234.732 81.953 236.827 84.568C240.58 89.368 249.743 80.815 254.194 71.652M236.74 68.516C235.257 66.944 234.384 65.025 234.907 63.192C236.653 57.956 244.507 53.766 249.395 53.156C255.155 52.545 262.137 59.876 261.875 65.2C261.875 65.723 261.788 66.16 261.788 66.6C267.288 65.2 272.173 63.72 273.919 63.022C278.632 61.189 276.013 64.768 265.977 68.522C264.39 69.1916 262.756 69.7458 261.089 70.18C258.471 80.129 249.918 89.118 243.548 90.78C239.095 91.904 231.242 86.581 231.329 80.035C231.416 76.893 233.249 72.618 236.74 68.516Z"
        fill="#FC466B" />
</svg>