<svg width="18" height="22" viewBox="0 0 18 22" fill="none" xmlns="http://www.w3.org/2000/svg">
    <path
        d="M17.5 7.45C17.0563 5.5104 15.9558 3.78381 14.3848 2.56276C12.8139 1.34171 10.8691 0.701288 8.87998 0.749998H8.86998C6.88216 0.700416 4.93828 1.33927 3.36743 2.55841C1.79658 3.77755 0.695282 5.50207 0.249978 7.44C-0.920022 12.6 2.23998 16.97 5.09998 19.72C6.11163 20.7012 7.46562 21.25 8.87498 21.25C10.2843 21.25 11.6383 20.7012 12.65 19.72C15.51 16.97 18.67 12.61 17.5 7.45ZM8.87998 12.46C8.25697 12.46 7.64795 12.2753 7.12993 11.9291C6.61192 11.583 6.20817 11.091 5.96976 10.5155C5.73134 9.93986 5.66896 9.3065 5.7905 8.69546C5.91205 8.08442 6.21206 7.52315 6.65259 7.08261C7.09313 6.64208 7.6544 6.34207 8.26544 6.22052C8.87648 6.09898 9.50984 6.16136 10.0854 6.39978C10.661 6.63819 11.153 7.04194 11.4991 7.55995C11.8452 8.07797 12.03 8.68699 12.03 9.31C12.03 10.1454 11.6981 10.9466 11.1074 11.5374C10.5166 12.1281 9.71541 12.46 8.87998 12.46Z"
        fill="#292D32" />
</svg>