<svg width="167" height="227" viewBox="0 0 167 227" fill="none" xmlns="http://www.w3.org/2000/svg">
    <path opacity="0.247"
        d="M92.7011 120.783C92.894 120.577 93.0415 120.334 93.1341 120.067C94.0341 118.292 94.7621 116.444 95.5701 114.629C99.4153 106.067 102.624 97.2324 105.17 88.1981C107.495 80.3794 109.215 72.3931 110.313 64.3101C110.943 59.8764 111.139 55.3919 110.9 50.9201C110.765 49.0161 110.526 47.1209 110.183 45.2431C109.711 42.7249 108.934 40.2736 107.869 37.9431C107.201 36.4811 107.844 37.9781 107.201 36.4811C106.417 34.1121 105.243 33.8271 104.866 34.9631C104.197 36.6381 103.472 38.0521 102.789 39.7201C101.263 43.5451 100.065 47.4926 99.2061 51.5201C97.3161 59.6831 96.5171 67.9651 95.5281 76.2731C95.1451 79.4921 94.8521 82.7231 94.5171 85.9491C94.0981 89.9821 93.7561 94.0221 93.4511 98.0641C93.2211 101.117 93.0191 104.172 92.8241 107.227C92.7311 108.69 92.6921 110.156 92.6101 111.619C92.4501 114.471 92.4274 117.324 92.5421 120.178C92.5167 120.394 92.5743 120.611 92.7031 120.785M71.7111 188.135C70.6841 188.818 69.7011 189.465 68.7241 190.12C61.0771 195.252 53.5341 200.537 45.8761 205.65C37.5681 211.196 29.1451 216.572 20.4761 221.545C19.3201 222.208 18.1371 222.822 16.9351 223.4C15.1167 224.283 13.1196 224.737 11.0981 224.725C9.86847 224.776 8.63676 224.741 7.41207 224.62C5.54609 224.439 3.80346 223.607 2.49007 222.269C2.25807 222.02 2.01106 221.785 1.76906 221.545C1.42211 221.205 1.14622 220.799 0.957388 220.352C0.768554 219.904 0.670559 219.423 0.669089 218.937C0.649089 218.047 0.642089 217.155 0.669089 216.266C0.729447 215.244 1.0062 214.246 1.48107 213.338C2.19796 211.909 3.08872 210.574 4.13308 209.364C6.91343 206.123 9.9528 203.113 13.2211 200.364C19.3279 195.221 25.7057 190.408 32.3271 185.946C37.9771 182.059 43.5991 178.137 48.9731 173.871C51.4141 171.933 53.7991 169.929 56.0861 167.811C58.4894 165.623 60.6222 163.155 62.4391 160.46C63.7095 158.598 64.6142 156.511 65.1051 154.31C65.3182 152.967 65.2689 151.595 64.9601 150.27C64.4891 147.51 64.1411 144.738 63.8951 141.949C63.2353 133.017 63.0431 124.056 63.3191 115.103C63.3691 112.12 63.4881 109.135 63.6591 106.156C63.9037 101.899 64.2401 97.6481 64.6681 93.4041C65.0541 89.5791 65.4891 85.7601 66.0051 81.9511C66.7071 76.7705 67.5201 71.6071 68.4441 66.4611C69.4441 60.8781 70.5141 55.3081 71.7781 49.7781C73.3814 42.3933 75.5816 35.1509 78.3571 28.1221C80.1463 23.4511 82.5328 19.0313 85.4571 14.9731C88.7985 10.5563 92.9011 6.77097 97.5721 3.79513C99.404 2.5724 101.443 1.69341 103.59 1.20113C104.201 1.05228 104.825 0.968142 105.453 0.950127C107.153 0.875598 108.856 0.904999 110.553 1.03814C112.838 1.3456 115.055 2.03342 117.112 3.07311C125.126 6.8805 131.385 13.6024 134.612 21.8671C136.163 25.7846 137.27 29.8638 137.912 34.0281C138.864 40.5309 139.228 47.1061 139 53.6741C138.954 56.9211 138.778 60.1631 138.5 63.3971C136.637 85.0439 130.143 106.037 119.456 124.954C117.045 129.275 114.349 133.42 111.78 137.643C108.753 142.476 106.022 147.489 103.604 152.653C102.548 154.873 101.719 157.195 101.129 159.581C100.533 162.213 100.415 164.931 100.781 167.605C101.6 173.867 103.488 179.942 106.364 185.564C107.246 187.257 108.232 188.894 109.318 190.464C112.216 194.699 116.149 198.122 120.742 200.408C124.503 202.313 128.551 203.587 132.724 204.179C135.335 204.606 137.979 204.795 140.624 204.744C142.824 204.674 145.009 204.429 147.2 204.244C151.58 203.828 155.989 203.801 160.374 204.164C161.206 204.26 162.027 204.43 162.828 204.674C164.217 205.171 165.416 206.091 166.256 207.304C166.537 207.69 166.671 208.163 166.635 208.639C166.635 209.239 166.603 209.846 166.641 210.446C166.672 210.944 166.596 211.443 166.42 211.91C166.244 212.377 165.971 212.801 165.619 213.155C164.367 214.568 162.916 215.789 161.31 216.781C158.532 218.399 155.622 219.778 152.61 220.902C147.191 222.985 141.568 224.491 135.834 225.396C131.222 226.079 126.556 226.322 121.898 226.12C117.548 226.004 113.251 225.134 109.198 223.549C105.67 222.168 102.228 220.579 98.8881 218.79C94.0766 216.212 89.7577 212.805 86.1301 208.726C82.0504 204.221 78.3699 199.369 75.1301 194.226C74.0971 192.557 73.1531 190.837 72.2411 189.1C72.0831 188.8 71.9181 188.5 71.7101 188.118"
        fill="#D8D8D8" />
</svg>