<svg width="22" height="19" viewBox="0 0 22 19" fill="none" xmlns="http://www.w3.org/2000/svg">
    <path
        d="M19.7422 1.516C18.6162 0.603912 17.1852 0.154881 15.74 0.260205C14.2948 0.365529 12.944 1.0173 11.9622 2.083L11.1412 2.929L10.3202 2.083C9.33837 1.0173 7.98754 0.365529 6.54236 0.260205C5.09717 0.154881 3.66612 0.603912 2.54018 1.516C1.926 2.04663 1.42613 2.69661 1.07095 3.42643C0.715773 4.15624 0.512698 4.95066 0.47407 5.76139C0.435441 6.57213 0.562065 7.38225 0.846247 8.14253C1.13043 8.90281 1.56623 9.59737 2.12718 10.184L10.1942 18.514C10.3162 18.6416 10.4628 18.7431 10.6251 18.8125C10.7874 18.8818 10.9621 18.9176 11.1387 18.9176C11.3152 18.9176 11.4899 18.8818 11.6522 18.8125C11.8146 18.7431 11.9612 18.6416 12.0832 18.514L20.1502 10.184C20.7119 9.59791 21.1484 8.90364 21.4333 8.14346C21.7181 7.38327 21.8453 6.57307 21.807 5.76217C21.7688 4.95127 21.5659 4.15664 21.2107 3.42666C20.8556 2.69667 20.3566 2.04659 19.7422 1.516Z"
        fill="#E63337" />
</svg>