<svg width="24" height="21" viewBox="0 0 24 21" fill="none" xmlns="http://www.w3.org/2000/svg">
    <path
        d="M21.5838 3.25589C20.4596 2.34567 19.031 1.89761 17.5884 2.00274C16.1457 2.10787 14.7972 2.75831 13.8168 3.82189L12.9968 4.66689L12.1768 3.82189C11.1966 2.75809 9.84801 2.1075 8.40528 2.00237C6.96254 1.89723 5.53391 2.34544 4.40981 3.25589C3.79676 3.78566 3.29782 4.43453 2.94331 5.1631C2.5888 5.89166 2.38612 6.68469 2.34758 7.49401C2.30905 8.30333 2.43547 9.11203 2.71915 9.87098C3.00283 10.6299 3.43786 11.3233 3.99781 11.9089L12.0528 20.2249C12.1743 20.3527 12.3204 20.4545 12.4825 20.5241C12.6445 20.5936 12.819 20.6295 12.9953 20.6295C13.1716 20.6295 13.3461 20.5936 13.5081 20.5241C13.6702 20.4545 13.8164 20.3527 13.9378 20.2249L21.9918 11.9089C22.5525 11.3238 22.9883 10.6308 23.2726 9.8719C23.557 9.11304 23.6839 8.30426 23.6458 7.49479C23.6076 6.68531 23.4051 5.89206 23.0506 5.16333C22.6961 4.43459 22.1971 3.78562 21.5838 3.25589Z"
        fill="black" />
    <path d="M1.09082 1.27148L21.9258 18.3865" stroke="#707070" stroke-width="2" />
    <path d="M1.09082 1.27148L21.9258 18.3865" stroke="black" stroke-width="2" />
    <path d="M0.34668 2.01562L19.5547 17.7936L21.1827 19.1306" stroke="white" />
    <path d="M1.83496 0.52832L21.043 16.3063L22.671 17.6433" stroke="white" />
</svg>