<svg width="22" height="22" viewBox="0 0 22 22" fill="none" xmlns="http://www.w3.org/2000/svg">
    <path fill-rule="evenodd" clip-rule="evenodd"
        d="M11 9.79C10.7607 9.79 10.5267 9.86096 10.3278 9.99392C10.1288 10.1269 9.97369 10.3159 9.88211 10.537C9.79053 10.7581 9.76657 11.0013 9.81325 11.2361C9.85994 11.4708 9.97518 11.6864 10.1444 11.8556C10.3136 12.0248 10.5292 12.1401 10.7639 12.1868C10.9987 12.2334 11.242 12.2095 11.4631 12.1179C11.6842 12.0263 11.8731 11.8712 12.0061 11.6722C12.139 11.4733 12.21 11.2393 12.21 11C12.2104 10.841 12.1794 10.6835 12.1187 10.5365C12.058 10.3895 11.9689 10.256 11.8565 10.1435C11.744 10.0311 11.6105 9.94197 11.4635 9.8813C11.3165 9.82063 11.159 9.78961 11 9.79ZM11 0C8.82441 0 6.69767 0.645139 4.88873 1.85383C3.07979 3.06253 1.66989 4.78049 0.83733 6.79048C0.00476617 8.80047 -0.213071 11.0122 0.211367 13.146C0.635804 15.2798 1.68345 17.2398 3.22183 18.7782C4.76021 20.3166 6.72022 21.3642 8.85401 21.7886C10.9878 22.2131 13.1995 21.9952 15.2095 21.1627C17.2195 20.3301 18.9375 18.9202 20.1462 17.1113C21.3549 15.3023 22 13.1756 22 11C22 9.55546 21.7155 8.12506 21.1627 6.79048C20.6099 5.4559 19.7996 4.24327 18.7782 3.22183C17.7567 2.20038 16.5441 1.39013 15.2095 0.837325C13.8749 0.284523 12.4445 0 11 0ZM13.409 13.409L4.4 17.6L8.59101 8.591L17.6 4.4L13.409 13.409Z"
        fill="#C8C9CC" />
</svg>