<svg width="28" height="22" viewBox="0 0 28 22" fill="none" xmlns="http://www.w3.org/2000/svg">
<path d="M16.9 2.38004C16.4325 1.84121 15.8458 1.41873 15.1865 1.14611C14.5272 0.873486 13.8135 0.758226 13.1019 0.809469C12.3904 0.860712 11.7005 1.07705 11.0871 1.44132C10.4737 1.80559 9.95358 2.30777 9.56804 2.90804C9.40166 3.14377 9.25004 3.38958 9.11404 3.64404C8.97805 3.38957 8.82643 3.14377 8.66004 2.90804C8.2745 2.30777 7.7544 1.80559 7.14099 1.44132C6.52758 1.07705 5.83773 0.860712 5.12615 0.809469C4.41458 0.758226 3.70085 0.873486 3.04157 1.14611C2.3823 1.41873 1.79561 1.84121 1.32804 2.38004C0.453576 3.40144 -0.0185646 4.70658 4.13858e-05 6.05105C0.055811 7.70986 0.719182 9.29035 1.86404 10.492C3.3048 12.0627 4.86441 13.52 6.52904 14.851C7.23504 15.451 7.96404 16.074 8.74104 16.751L8.76404 16.771C8.86117 16.8553 8.98544 16.9017 9.11404 16.9017C9.24264 16.9017 9.36692 16.8553 9.46404 16.771L9.48704 16.751C10.264 16.071 10.993 15.451 11.699 14.851C13.3637 13.52 14.9233 12.0627 16.364 10.492C17.5089 9.29035 18.1723 7.70986 18.228 6.05105C18.2466 4.70658 17.7745 3.40144 16.9 2.38004ZM11.01 14.037C10.402 14.555 9.77604 15.089 9.11604 15.662C8.45604 15.088 7.83004 14.555 7.22204 14.036C3.51604 10.878 1.06804 8.79205 1.06804 6.05005C1.05021 4.96566 1.42812 3.91194 2.13104 3.08605C2.4683 2.69878 2.88522 2.38893 3.35328 2.17768C3.82135 1.96643 4.32952 1.85876 4.84304 1.86204C5.43273 1.8759 6.00999 2.03444 6.52404 2.32372C7.03808 2.613 7.47317 3.02416 7.79104 3.52104C8.14058 4.02083 8.41609 4.56849 8.60904 5.14705C8.64382 5.2544 8.71172 5.34797 8.80299 5.41433C8.89425 5.4807 9.0042 5.51645 9.11704 5.51645C9.22989 5.51645 9.33983 5.4807 9.4311 5.41433C9.52236 5.34797 9.59026 5.2544 9.62504 5.14705C9.81799 4.56849 10.0935 4.02083 10.443 3.52104C10.7354 3.05252 11.1338 2.65923 11.606 2.37285C12.0782 2.08647 12.6111 1.91502 13.1617 1.87231C13.7123 1.82959 14.2652 1.91681 14.7759 2.12694C15.2867 2.33706 15.7409 2.66422 16.102 3.08204C16.805 3.90794 17.1829 4.96166 17.165 6.04604C17.164 8.79305 14.716 10.879 11.01 14.037Z" fill="#C8C9CC"/>
<path d="M22.2179 4.51507C21.202 4.50998 20.2146 4.85064 19.4179 5.48107C18.7455 6.01939 18.1892 6.68856 17.7829 7.44807C17.3766 6.68856 16.8204 6.01939 16.1479 5.48107C15.3537 4.85257 14.3697 4.51202 13.3569 4.51507C12.6651 4.52859 11.9831 4.68192 11.352 4.96583C10.721 5.24973 10.1539 5.65835 9.6848 6.16711C9.21575 6.67586 8.85445 7.27424 8.62264 7.92624C8.39083 8.57824 8.2933 9.2704 8.33591 9.96107C8.33591 13.3151 11.0289 15.6151 15.1059 19.0851C15.7979 19.6751 16.5829 20.3441 17.3989 21.0571C17.5066 21.1512 17.6448 21.2031 17.7879 21.2031C17.931 21.2031 18.0692 21.1512 18.1769 21.0571C18.9929 20.3441 19.7769 19.6751 20.4699 19.0851C24.5459 15.6151 27.2359 13.3151 27.2359 9.96107C27.2785 9.27065 27.1811 8.57874 26.9495 7.92693C26.7178 7.27513 26.3568 6.67689 25.8881 6.16817C25.4193 5.65946 24.8526 5.25078 24.2219 4.96669C23.5911 4.68261 22.9095 4.52899 22.2179 4.51507Z" fill="#C8C9CC"/>
</svg>
