<svg width="20" height="22" viewBox="0 0 20 22" fill="none" xmlns="http://www.w3.org/2000/svg">
    <path
        d="M7.25951 3.81436C6.90812 3.87757 5.59968 1.29172 5.29344 1.34616L2.59339 1.83126C2.38719 1.86242 2.18942 1.93492 2.01194 2.04441C1.83446 2.1539 1.68093 2.29812 1.56057 2.46842C1.4402 2.63871 1.35549 2.83157 1.31151 3.03542C1.26753 3.23926 1.26519 3.44989 1.30464 3.65467L4.77066 20.1127C4.87104 20.5293 5.1282 20.8912 5.48862 21.123C5.84904 21.3548 6.28497 21.4388 6.7057 21.3573C6.7057 21.3573 9.2175 3.46331 7.25951 3.81436Z"
        stroke="#C8C9CC" />
    <path
        d="M18.0509 21.4769H5.59191C5.15183 21.4891 4.7248 21.3268 4.40391 21.0253C4.08303 20.7239 3.89431 20.3079 3.87891 19.8679L3.87891 2.60893C3.89431 2.16896 4.08303 1.75292 4.40391 1.45151C4.7248 1.15011 5.15183 0.987785 5.59191 0.999931H18.0509C18.4912 0.987516 18.9184 1.14972 19.2395 1.45115C19.5606 1.75259 19.7495 2.16878 19.7649 2.60893V19.8679C19.7495 20.3081 19.5606 20.7243 19.2395 21.0257C18.9184 21.3271 18.4912 21.4893 18.0509 21.4769ZM11.8219 12.9999C10.7803 12.9971 9.77649 13.3904 9.01391 14.0999C8.64321 14.4569 8.34929 14.8859 8.15017 15.3605C7.95105 15.8351 7.85092 16.3453 7.85591 16.8599C7.85589 16.9054 7.8653 16.9504 7.88355 16.992C7.90179 17.0337 7.92847 17.0711 7.96191 17.1019C8.03171 17.1668 8.12363 17.2026 8.21891 17.2019H15.4249C15.5205 17.2026 15.6127 17.1668 15.6829 17.1019C15.7152 17.0705 15.7407 17.0329 15.7579 16.9912C15.775 16.9496 15.7836 16.9049 15.7829 16.8599C15.7879 16.3454 15.6879 15.8352 15.4889 15.3607C15.29 14.8861 14.9963 14.4571 14.6259 14.0999C13.8643 13.3914 12.8622 12.9983 11.8219 12.9999ZM11.8219 7.03193C11.1737 7.01461 10.5448 7.25348 10.0716 7.69676C9.59836 8.14004 9.31894 8.752 9.29391 9.39993C9.31481 10.049 9.59204 10.6634 10.0649 11.1085C10.5378 11.5536 11.1677 11.7933 11.8169 11.7749C12.4658 11.7944 13.0961 11.5561 13.5698 11.1121C14.0435 10.6682 14.3222 10.0548 14.3449 9.40593C14.3445 9.09052 14.2788 8.77859 14.152 8.4898C14.0252 8.20101 13.8399 7.94161 13.6079 7.72793C13.1235 7.27587 12.4844 7.02746 11.8219 7.03193ZM9.65691 2.61393C9.56361 2.61123 9.47304 2.6456 9.40502 2.7095C9.33699 2.7734 9.29704 2.86165 9.29391 2.95493C9.29704 3.04821 9.33699 3.13646 9.40502 3.20036C9.47304 3.26427 9.56361 3.29863 9.65691 3.29593H13.8099C13.9033 3.29863 13.994 3.2643 14.0622 3.20042C14.1303 3.13655 14.1705 3.0483 14.1739 2.95493C14.1705 2.86156 14.1303 2.77332 14.0622 2.70944C13.994 2.64556 13.9033 2.61123 13.8099 2.61393H9.65691Z"
        fill="#C8C9CC" />
</svg>