<svg width="20" height="20" viewBox="0 0 20 20" fill="none" xmlns="http://www.w3.org/2000/svg">
<path d="M0 10.97V4.99C0.000393523 4.33398 0.130064 3.68446 0.381599 3.07857C0.633135 2.47268 1.00161 1.9223 1.46595 1.45888C1.9303 0.995467 2.48141 0.628099 3.0878 0.377777C3.6942 0.127455 4.34397 -0.000914935 5 4.90858e-06H15C15.656 -0.000914935 16.3058 0.127455 16.9122 0.377777C17.5186 0.628099 18.0697 0.995467 18.534 1.45888C18.9984 1.9223 19.3669 2.47268 19.6184 3.07857C19.8699 3.68446 19.9996 4.33398 20 4.99V11.97C19.9971 13.2934 19.4687 14.5614 18.5311 15.4952C17.5935 16.4291 16.3234 16.9524 15 16.95H13.5C13.3449 16.9511 13.1922 16.9877 13.0535 17.057C12.9148 17.1264 12.7939 17.2266 12.7 17.35L11.2 19.34C11.0718 19.5422 10.8945 19.7087 10.6847 19.8241C10.475 19.9394 10.2394 19.9999 10 19.9999C9.76058 19.9999 9.52504 19.9394 9.31526 19.8241C9.10547 19.7087 8.92823 19.5422 8.8 19.34L7.3 17.35C7.20161 17.2316 7.0797 17.1349 6.94199 17.066C6.80428 16.9972 6.65377 16.9577 6.5 16.95H5C3.67665 16.9524 2.40652 16.4291 1.4689 15.4952C0.531273 14.5614 0.00291447 13.2934 0 11.97L0 10.97Z" fill="#FC466B"/>
<path d="M10 10C9.80222 10 9.60888 9.94135 9.44443 9.83147C9.27998 9.72159 9.15181 9.56541 9.07612 9.38268C9.00043 9.19996 8.98063 8.99889 9.01922 8.80491C9.0578 8.61093 9.15304 8.43275 9.29289 8.29289C9.43275 8.15304 9.61093 8.0578 9.80491 8.01922C9.99889 7.98063 10.2 8.00043 10.3827 8.07612C10.5654 8.15181 10.7216 8.27998 10.8315 8.44443C10.9414 8.60888 11 8.80222 11 9C11 9.26522 10.8946 9.51957 10.7071 9.70711C10.5196 9.89464 10.2652 10 10 10Z" fill="white"/>
<path d="M14 10C13.8022 10 13.6089 9.94135 13.4444 9.83147C13.28 9.72159 13.1518 9.56541 13.0761 9.38268C13.0004 9.19996 12.9806 8.99889 13.0192 8.80491C13.0578 8.61093 13.153 8.43275 13.2929 8.29289C13.4327 8.15304 13.6109 8.0578 13.8049 8.01922C13.9989 7.98063 14.2 8.00043 14.3827 8.07612C14.5654 8.15181 14.7216 8.27998 14.8315 8.44443C14.9414 8.60888 15 8.80222 15 9C15 9.26522 14.8946 9.51957 14.7071 9.70711C14.5196 9.89464 14.2652 10 14 10Z" fill="white"/>
<path d="M6 10C5.80222 10 5.60888 9.94135 5.44443 9.83147C5.27998 9.72159 5.15181 9.56541 5.07612 9.38268C5.00043 9.19996 4.98063 8.99889 5.01922 8.80491C5.0578 8.61093 5.15304 8.43275 5.29289 8.29289C5.43275 8.15304 5.61093 8.0578 5.80491 8.01922C5.99889 7.98063 6.19996 8.00043 6.38268 8.07612C6.56541 8.15181 6.72159 8.27998 6.83147 8.44443C6.94135 8.60888 7 8.80222 7 9C7 9.26522 6.89464 9.51957 6.70711 9.70711C6.51957 9.89464 6.26522 10 6 10Z" fill="white"/>
</svg>
