<svg width="15" height="21" viewBox="0 0 15 21" fill="none" xmlns="http://www.w3.org/2000/svg">
<path opacity="0.4" d="M7.19801 1.00003C5.9526 1.00442 4.75881 1.49816 3.87416 2.37478C2.98951 3.25141 2.48488 4.44068 2.46913 5.686C2.45338 6.93132 2.92779 8.13293 3.78999 9.03164C4.6522 9.93036 5.83311 10.4541 7.07802 10.49C7.15101 10.48 7.225 10.48 7.29799 10.49H7.36799C8.61798 10.4551 9.80366 9.92827 10.6674 9.02401C11.5311 8.11976 12.0031 6.91112 11.9807 5.66085C11.9583 4.41058 11.4434 3.21969 10.5478 2.34695C9.65226 1.47421 8.44844 0.99017 7.19801 1.00003Z" stroke="#707070"/>
<path d="M12.278 13.15C10.7426 12.237 8.9893 11.755 7.20295 11.755C5.41659 11.755 3.66331 12.237 2.12793 13.15C1.53572 13.4535 1.03859 13.9142 0.691105 14.4818C0.343625 15.0493 0.159241 15.7015 0.158207 16.3669C0.157174 17.0324 0.339529 17.6852 0.685246 18.2538C1.03096 18.8224 1.52666 19.2847 2.11792 19.59C3.6518 20.5126 5.40799 21.0001 7.19794 21.0001C8.9879 21.0001 10.7441 20.5126 12.278 19.59C12.8685 19.2847 13.3637 18.8227 13.7094 18.2548C14.0551 17.6869 14.2379 17.0348 14.2379 16.37C14.2379 15.7051 14.0551 15.0531 13.7094 14.4852C13.3637 13.9173 12.8685 13.4554 12.278 13.15Z" fill="#C8C9CC"/>
</svg>
