<svg width="27" height="27" viewBox="0 0 27 27" fill="none" xmlns="http://www.w3.org/2000/svg">
    <path
        d="M22.7187 10.123C20.7317 10.123 19.9187 8.71803 20.9067 6.99403C21.0431 6.75683 21.1314 6.49508 21.1666 6.22373C21.2018 5.95238 21.1831 5.67676 21.1117 5.41263C21.0403 5.14849 20.9175 4.90103 20.7504 4.68438C20.5832 4.46773 20.375 4.28615 20.1377 4.15003L18.2397 3.06303C17.8205 2.81993 17.3221 2.75279 16.8536 2.87629C16.3851 2.9998 15.9845 3.3039 15.7397 3.72203L15.6187 3.93103C14.6307 5.65503 13.0057 5.65503 12.0067 3.93103L11.8827 3.72203C11.7645 3.51421 11.6061 3.33202 11.4168 3.18609C11.2274 3.04015 11.0109 2.93339 10.7799 2.87205C10.5488 2.8107 10.3079 2.79599 10.0711 2.82878C9.83426 2.86157 9.60637 2.9412 9.40068 3.06303L7.50068 4.15003C7.02197 4.42838 6.67259 4.88455 6.52857 5.41925C6.38454 5.95395 6.45754 6.52389 6.73168 7.00502C7.73168 8.71803 6.91868 10.123 4.93168 10.123C4.37858 10.1249 3.84872 10.3457 3.45799 10.7372C3.06727 11.1286 2.84747 11.6589 2.84668 12.212V14.144C2.84826 14.6968 3.06855 15.2264 3.4594 15.6173C3.85026 16.0082 4.37992 16.2284 4.93268 16.23C6.91968 16.23 7.73268 17.635 6.73268 19.359C6.59627 19.5962 6.50795 19.858 6.47278 20.1293C6.4376 20.4007 6.45626 20.6763 6.52768 20.9404C6.5991 21.2046 6.72188 21.452 6.88901 21.6687C7.05613 21.8853 7.26433 22.0669 7.50168 22.203L9.40168 23.29C9.82083 23.5331 10.3192 23.6003 10.7878 23.4768C11.2563 23.3533 11.6568 23.0492 11.9017 22.631L12.0227 22.422C13.0107 20.698 14.6357 20.698 15.6347 22.422L15.7557 22.631C16.0005 23.0492 16.4011 23.3533 16.8696 23.4768C17.3381 23.6003 17.8365 23.5331 18.2557 23.29L20.1557 22.203C20.6344 21.9275 20.9843 21.4733 21.1285 20.9401C21.2727 20.4069 21.1994 19.8382 20.9247 19.359C19.9247 17.635 20.7377 16.23 22.7247 16.23C23.2774 16.2284 23.8071 16.0082 24.198 15.6173C24.5888 15.2264 24.8091 14.6968 24.8107 14.144V12.212C24.8055 11.6591 24.5833 11.1303 24.192 10.7396C23.8007 10.3489 23.2716 10.1275 22.7187 10.123ZM13.8257 16.743C13.12 16.743 12.4302 16.5338 11.8434 16.1417C11.2566 15.7497 10.7993 15.1924 10.5293 14.5404C10.2592 13.8885 10.1886 13.1711 10.3262 12.4789C10.4639 11.7868 10.8037 11.1511 11.3027 10.6521C11.8017 10.1531 12.4375 9.81326 13.1296 9.67558C13.8217 9.53791 14.5391 9.60857 15.1911 9.87862C15.8431 10.1487 16.4003 10.606 16.7924 11.1928C17.1844 11.7795 17.3937 12.4693 17.3937 13.175C17.3918 14.1207 17.0153 15.0272 16.3466 15.6959C15.6779 16.3647 14.7714 16.7412 13.8257 16.743Z"
        fill="#FC466B" />
</svg>