<svg width="24" height="24" viewBox="0 0 24 24" fill="none" xmlns="http://www.w3.org/2000/svg">
    <path
        d="M6.76005 22H17.242C17.7582 22.0508 18.2792 21.9907 18.7702 21.8235C19.2611 21.6564 19.7106 21.3862 20.0885 21.031C20.4665 20.6758 20.764 20.2439 20.9612 19.7642C21.1585 19.2846 21.2508 18.7683 21.232 18.25L21.752 9.99C21.7845 9.47766 21.7114 8.96412 21.5375 8.48114C21.3635 7.99816 21.0923 7.556 20.7406 7.18202C20.3889 6.80803 19.9643 6.51018 19.4929 6.30686C19.0215 6.10355 18.5134 5.99911 18 6C17.7001 5.99812 17.4065 5.91419 17.1509 5.7573C16.8953 5.60041 16.6875 5.37656 16.55 5.11L15.83 3.66C15.5573 3.18169 15.1692 2.77923 14.7011 2.48929C14.233 2.19935 13.6998 2.03114 13.15 2H10.86C10.3086 2.02951 9.77333 2.19695 9.30336 2.48697C8.83338 2.77699 8.44371 3.18032 8.17004 3.66L7.45005 5.11C7.3126 5.37656 7.10482 5.60041 6.84922 5.7573C6.59361 5.91419 6.29995 5.99812 6.00004 6C5.48685 5.99939 4.97899 6.10403 4.50784 6.30746C4.03669 6.51089 3.61227 6.80879 3.26081 7.18275C2.90935 7.5567 2.63832 7.99876 2.46447 8.48161C2.29061 8.96446 2.21764 9.47783 2.25004 9.99L2.77004 18.25C2.75046 18.7685 2.84223 19.2852 3.03918 19.7652C3.23612 20.2453 3.53366 20.6775 3.91176 21.0329C4.28986 21.3882 4.73972 21.6584 5.23105 21.8253C5.72237 21.9921 6.24375 22.0517 6.76005 22Z"
        stroke="#FC466B" stroke-width="1.5" stroke-linecap="round" stroke-linejoin="round" />
    <path d="M10.5 8H13.5" stroke="#FC466B" stroke-width="1.5" stroke-linecap="round" stroke-linejoin="round" />
    <path
        d="M12 18C12.6428 18 13.2711 17.8094 13.8056 17.4523C14.3401 17.0952 14.7566 16.5876 15.0026 15.9937C15.2486 15.3999 15.313 14.7464 15.1876 14.116C15.0622 13.4855 14.7526 12.9064 14.2981 12.4519C13.8436 11.9974 13.2645 11.6879 12.634 11.5624C12.0036 11.437 11.3501 11.5014 10.7563 11.7474C10.1624 11.9934 9.65484 12.4099 9.29772 12.9444C8.94061 13.4789 8.75 14.1072 8.75 14.75C8.75159 15.6115 9.09451 16.4372 9.70365 17.0463C10.3128 17.6555 11.1385 17.9984 12 18Z"
        stroke="#FC466B" stroke-width="1.5" stroke-linecap="round" stroke-linejoin="round" />
</svg>