<svg width="20" height="20" viewBox="0 0 20 20" fill="none" xmlns="http://www.w3.org/2000/svg">
<mask id="mask0_3201_592" style="mask-type:luminance" maskUnits="userSpaceOnUse" x="0" y="0" width="20" height="20">
<path d="M20 0H0V20H20V0Z" fill="white"/>
</mask>
<g mask="url(#mask0_3201_592)">
<path d="M10.1329 9.05907C10.0414 9.05073 9.94939 9.05073 9.85791 9.05907C8.88919 9.02304 7.9733 8.60828 7.3072 7.90397C6.64111 7.19967 6.27803 6.26208 6.29605 5.29286C6.31407 4.32363 6.71174 3.40019 7.40354 2.72113C8.09534 2.04206 9.02602 1.66162 9.99541 1.66162C10.9648 1.66162 11.8955 2.04206 12.5873 2.72113C13.2791 3.40019 13.6768 4.32363 13.6948 5.29286C13.7128 6.26208 13.3497 7.19967 12.6836 7.90397C12.0175 8.60828 11.1016 9.02304 10.1329 9.05907Z" stroke="#FC466B" stroke-width="1.25" stroke-linecap="round" stroke-linejoin="round"/>
<path d="M5.96703 12.134C3.95403 13.484 3.95403 15.684 5.96703 17.026C7.2281 17.7788 8.66938 18.1762 10.138 18.1762C11.6067 18.1762 13.0479 17.7788 14.309 17.026C16.326 15.676 16.326 13.476 14.309 12.134C13.0465 11.3853 11.6058 10.9902 10.138 10.9902C8.67023 10.9902 7.2295 11.3853 5.96703 12.134Z" stroke="#FC466B" stroke-width="1.25" stroke-linecap="round" stroke-linejoin="round"/>
</g>
</svg>
