<svg width="20" height="20" viewBox="0 0 20 20" fill="none" xmlns="http://www.w3.org/2000/svg">
<g id="Icons">
<g id="Layer 2">
<g id="checkmark-circle-2">
<path id="Vector" d="M9.94214 2.14099C7.92896 2.14036 5.98753 2.88861 4.4955 4.24018C3.00348 5.59175 2.06756 7.45 1.8698 9.45344C1.67205 11.4569 2.2266 13.4622 3.42558 15.0794C4.62456 16.6966 6.38223 17.81 8.35668 18.203C10.3311 18.596 12.3812 18.2405 14.108 17.2056C15.8348 16.1707 17.115 14.5305 17.6994 12.604C18.2838 10.6776 18.1307 8.60256 17.2699 6.7827C16.4091 4.96284 14.9021 3.52824 13.0421 2.75799C12.0593 2.35097 11.0059 2.14133 9.94214 2.14099ZM13.4331 8.31199L9.72314 13.178C9.6477 13.2757 9.551 13.355 9.44036 13.4098C9.32972 13.4646 9.20805 13.4935 9.08459 13.4943C8.96112 13.495 8.8391 13.4677 8.72779 13.4143C8.61647 13.3609 8.51878 13.2828 8.44214 13.186L6.46314 10.664C6.39747 10.5799 6.34902 10.4837 6.32055 10.3808C6.29207 10.278 6.28413 10.1705 6.29718 10.0646C6.32353 9.85076 6.43376 9.6561 6.60364 9.52349C6.77351 9.39088 6.9891 9.33119 7.20298 9.35754C7.30889 9.37058 7.41119 9.40436 7.50404 9.45694C7.59689 9.50952 7.67847 9.57988 7.74414 9.66399L9.06614 11.353L12.1331 7.29799C12.1981 7.21263 12.2792 7.1409 12.3719 7.08689C12.4645 7.03288 12.5669 6.99765 12.6732 6.98321C12.7795 6.96877 12.8875 6.9754 12.9913 7.00273C13.095 7.03006 13.1923 7.07755 13.2776 7.14249C13.363 7.20743 13.4347 7.28855 13.4887 7.38121C13.5427 7.47387 13.578 7.57626 13.5924 7.68254C13.6069 7.78881 13.6002 7.89689 13.5729 8.00061C13.5456 8.10432 13.4981 8.20163 13.4331 8.28699V8.31199Z" fill="#8166E6"/>
</g>
</g>
</g>
</svg>
